Coordinates
version=1
nRows=11
nColumns=46
inDegrees=yes

Units are S.I. units (second, meters, Newtons, ...)
Angles are in degrees.

endheader
time	pelvis_tilt	pelvis_list	pelvis_rotation	pelvis_tx	pelvis_ty	pelvis_tz	bb_angle	bb_tx	bb_ty	bb_tz	hip_flexion_r	hip_adduction_r	hip_rotation_r	knee_angle_r	knee_angle_r_beta	ankle_angle_r	subtalar_angle_r	mtp_angle_r	crank_angle_r	hip_flexion_l	hip_adduction_l	hip_rotation_l	knee_angle_l	knee_angle_l_beta	ankle_angle_l	subtalar_angle_l	mtp_angle_l	crank_angle_l	lumbar_extension	lumbar_bending	lumbar_rotation	arm_flex_r	arm_add_r	arm_rot_r	elbow_flex_r	pro_sup_r	wrist_flex_r	wrist_dev_r	arm_flex_l	arm_add_l	arm_rot_l	elbow_flex_l	pro_sup_l	wrist_flex_l	wrist_dev_l
      2.50500000	    -20.90984053	      8.15509121	     -3.07939328	      0.08523916	      1.02322050	     -0.19488483	      0.00000000	      0.50000000	      0.00000000	      0.25000000	     44.58729590	    -10.24658443	     -5.39427835	     22.73962698	      0.39688136	    -30.64550368	     -0.56018833	      0.00000000	      0.00000000	     98.23436763	     -5.88286296	      2.61511452	    114.87012625	      2.00486192	     -5.39226626	     -5.40245521	      0.00000000	      0.00000000	    -48.91532727	     -8.76195928	     -3.13140264	     89.38131979	    -10.77256058	     40.26977628	     36.29468673	     33.91208159	      0.00000000	      0.00000000	     89.61782236	     -7.77647923	     37.21104888	     42.21418732	     32.79804328	      0.00000000	      0.00000000
      2.51000000	    -20.73986751	      8.23920868	     -2.94156445	      0.08474010	      1.02358997	     -0.19495391	      0.00000000	      0.50000000	      0.00000000	      0.25000000	     44.48062407	    -10.47149960	     -5.27108997	     23.62903857	      0.41240452	    -30.57045060	     -1.07930449	      0.00000000	      0.00000000	     98.29016861	     -5.65659000	      2.48328114	    114.52261770	      1.99879675	     -4.27653991	     -5.45549063	      0.00000000	      0.00000000	    -49.24835399	     -8.93758515	     -3.39611796	     89.37924275	    -10.73555712	     39.61366639	     36.31292660	     33.49195533	      0.00000000	      0.00000000	     89.62280187	     -7.74722802	     36.86645048	     42.94012170	     32.43333243	      0.00000000	      0.00000000
      2.51500000	    -20.67720682	      8.23054838	     -2.71791645	      0.08417736	      1.02369026	     -0.19527390	      0.00000000	      0.50000000	      0.00000000	      0.25000000	     44.55028799	    -10.66959096	     -5.14256761	     24.68256628	      0.43079205	    -30.46042175	     -1.59432352	      0.00000000	      0.00000000	     98.41923563	     -5.30774411	      2.45155926	    114.15203395	      1.99232884	     -3.01189553	     -5.49387883	      0.00000000	      0.00000000	    -49.47460146	     -8.97050907	     -3.56623740	     89.35893595	    -10.78722508	     38.68485612	     36.61824813	     32.71722145	      0.00000000	      0.00000000	     89.62726619	     -7.63889836	     36.58868658	     43.60202457	     31.90785156	      0.00000000	      0.00000000
      2.52000000	    -20.72568659	      8.25391718	     -2.45527963	      0.08356768	      1.02348745	     -0.19577946	      0.00000000	      0.50000000	      0.00000000	      0.25000000	     44.85107201	    -10.91282252	     -4.94530034	     25.97159332	      0.45328982	    -30.20845313	     -2.19974216	      0.00000000	      0.00000000	     98.62320272	     -4.93298883	      2.34966731	    113.73147911	      1.98498877	     -1.75790949	     -5.71082803	      0.00000000	      0.00000000	    -49.60725447	     -8.96431095	     -3.83221260	     89.35868874	    -10.94758367	     38.24179906	     36.84910793	     33.26641813	      0.00000000	      0.00000000	     89.62376643	     -7.78063883	     36.36231951	     44.38778933	     32.42368798	      0.00000000	      0.00000000
      2.52500000	    -20.72860563	      8.25164911	     -2.14145054	      0.08290412	      1.02333831	     -0.19629220	      0.00000000	      0.50000000	      0.00000000	      0.25000000	     45.13306041	    -11.15803266	     -4.67367294	     27.33945577	      0.47716352	    -29.85019789	     -2.84242153	      0.00000000	      0.00000000	     98.68858902	     -4.52040006	      2.24791053	    113.23920375	      1.97639695	     -0.26905205	     -5.75572679	      0.00000000	      0.00000000	    -49.79942598	     -8.92354512	     -4.11889278	     89.35112384	    -11.13557214	     37.89307276	     37.39847453	     32.28071894	      0.00000000	      0.00000000	     89.62269947	     -7.83105572	     36.15739997	     45.47235288	     31.62355163	      0.00000000	      0.00000000
      2.53000000	    -20.76942589	      8.24445303	     -1.75828663	      0.08212971	      1.02314282	     -0.19691741	      0.00000000	      0.50000000	      0.00000000	      0.25000000	     45.52508306	    -11.44563090	     -4.36229493	     28.86665435	      0.50381816	    -29.34573341	     -3.18102128	      0.00000000	      0.00000000	     98.71630651	     -4.05614494	      2.06851221	    112.62622790	      1.96569850	      1.14878634	     -5.98874532	      0.00000000	      0.00000000	    -49.95371210	     -8.77748321	     -4.55383810	     89.37103304	    -11.05210851	     37.70258007	     37.56607384	     31.76803460	      0.00000000	      0.00000000	     89.61793110	     -8.27537033	     36.16148268	     46.62011274	     31.34990530	      0.00000000	      0.00000000
      2.53500000	    -20.82389561	      8.16584149	     -1.33637352	      0.08121925	      1.02278927	     -0.19769986	      0.00000000	      0.50000000	      0.00000000	      0.25000000	     46.00156024	    -11.69314462	     -4.15679314	     30.55944592	      0.53336295	    -28.91077769	     -3.90883424	      0.00000000	      0.00000000	     98.72578700	     -3.53557833	      2.00079633	    111.96323343	      1.95412706	      2.67228395	     -6.02696004	      0.00000000	      0.00000000	    -50.10551435	     -8.55247992	     -4.86422791	     89.37349485	    -11.23043655	     37.22571982	     37.75817732	     33.29962954	      0.00000000	      0.00000000	     89.61676259	     -8.50460681	     35.93222982	     47.44333530	     32.56371352	      0.00000000	      0.00000000
      2.54000000	    -20.90809961	      8.14201152	     -0.87087171	      0.08014737	      1.02235410	     -0.19863957	      0.00000000	      0.50000000	      0.00000000	      0.25000000	     46.55052158	    -12.00462770	     -3.80773780	     32.27504541	      0.56330581	    -28.45338314	     -4.50823248	      0.00000000	      0.00000000	     98.67982706	     -2.97306132	      1.85771871	    111.18190634	      1.94049033	      4.19647435	     -6.05818349	      0.00000000	      0.00000000	    -50.24409287	     -8.32281841	     -5.16897664	     89.36206450	    -11.31054941	     36.17178599	     38.04666113	     34.34277546	      0.00000000	      0.00000000	     89.61789860	     -8.50412517	     35.45289010	     48.07767528	     33.56278228	      0.00000000	      0.00000000
      2.54500000	    -20.98123741	      8.04175440	     -0.40138826	      0.07904125	      1.02195047	     -0.19944832	      0.00000000	      0.50000000	      0.00000000	      0.25000000	     47.12906381	    -12.24646929	     -3.54572508	     34.08013278	      0.59481053	    -28.06112639	     -5.10225110	      0.00000000	      0.00000000	     98.51936472	     -2.45538686	      1.73160912	    110.29494478	      1.92500993	      5.89458018	     -6.13854739	      0.00000000	      0.00000000	    -50.38753590	     -8.03375236	     -5.45989787	     89.35934749	    -11.38832234	     35.38499955	     38.31948472	     35.09568611	      0.00000000	      0.00000000	     89.61691804	     -8.60063044	     34.99127800	     48.83937918	     34.31268293	      0.00000000	      0.00000000
      2.55000000	    -20.98418665	      7.97164387	      0.15035451	      0.07793372	      1.02177644	     -0.20037118	      0.00000000	      0.50000000	      0.00000000	      0.25000000	     47.61946879	    -12.57584931	     -3.28827076	     35.83451154	      0.62543021	    -27.81369203	     -5.74510559	      0.00000000	      0.00000000	     98.18526459	     -1.86311905	      1.52723986	    109.25912770	      1.90693152	      7.44650364	     -6.32958056	      0.00000000	      0.00000000	    -50.69542880	     -7.70660251	     -5.76104835	     89.32626191	    -11.60887503	     34.12321844	     39.15317170	     35.79643975	      0.00000000	      0.00000000	     89.61627040	     -8.54784625	     34.17559103	     49.85736293	     35.10561468	      0.00000000	      0.00000000
      2.55500000	    -21.15928457	      7.89654748	      0.57430521	      0.07663723	      1.02110585	     -0.20105199	      0.00000000	      0.50000000	      0.00000000	      0.25000000	     48.41189897	    -12.77865655	     -2.84309890	     37.68573627	      0.65774018	    -27.47598277	     -5.94206540	      0.00000000	      0.00000000	     97.98084260	     -1.47507741	      1.30195024	    108.15379990	      1.88763991	      9.08292594	     -6.55522633	      0.00000000	      0.00000000	    -50.66525228	     -7.50651736	     -6.00790177	     89.31747759	    -11.59201260	     33.54739389	     39.20376166	     35.29543308	      0.00000000	      0.00000000	     89.62203080	     -8.55884367	     34.08420492	     50.35990963	     34.98122171	      0.00000000	      0.00000000
